<svg xmlns="http://www.w3.org/2000/svg" width="402" height="559.5" xml:space="preserve"><path fill-rule="evenodd" clip-rule="evenodd" fill="#F6D2A2" stroke="#000" stroke-width="3" stroke-linecap="round" d="M10.6 300.5c.8 15.7 16.5 8.5 23.7 3.5 6.7-4.6 8.7-.8 9.3-10 .4-6 1-12.1.7-18.2a44.6 44.6 0 0 0-29.7 7.6c-4.3 3.1-12.4 13.2-4 17"/><path fill-rule="evenodd" clip-rule="evenodd" fill="#C6B198" stroke="#000" stroke-width="3" stroke-linecap="round" d="M10.6 300.5c2.3-.9 4.8-1.5 6.3-3.5"/><path fill-rule="evenodd" clip-rule="evenodd" fill="#6AD7E5" stroke="#000" stroke-width="3" stroke-linecap="round" d="M47 112.9c-60.3-17-15.5-93.7 33-62.2L47 113zM314.9 45c47.7-33.5 90.9 42 35.4 61.1L314.9 45z"/><path fill-rule="evenodd" clip-rule="evenodd" fill="#F6D2A2" stroke="#000" stroke-width="3" stroke-linecap="round" d="M325.2 494.3c12 7.5 34.2 30.2 16 41.2-17.4 16-27.2-17.5-42.5-22.2 6.6-9 15-17.1 26.5-19z"/><path clip-rule="evenodd" fill="none" stroke="#000" stroke-width="3" stroke-linecap="round" d="M341.3 535.5c-2.7-5.3-3.6-11.6-8.1-16"/><path fill-rule="evenodd" clip-rule="evenodd" fill="#F6D2A2" stroke="#000" stroke-width="3" stroke-linecap="round" d="M108.6 520c-14.3 2.2-22.3 15-34.1 21.5-11.2 6.7-15.5-2.1-16.5-3.9-1.7-.8-1.6.8-4.3-2-10.4-16.3 10.8-28.3 21.8-36.4 15.4-3.1 25 10.2 33 20.8z"/><path clip-rule="evenodd" fill="none" stroke="#000" stroke-width="3" stroke-linecap="round" d="M58 537.6c.6-6.2 5.5-10.4 7.9-15.7"/><path fill-rule="evenodd" clip-rule="evenodd" d="M49.5 91.7c-8-4.2-13.8-10-9-19.2 4.6-8.5 13-7.5 21-3.3l-12 22.5zm288.2-8c8-4.2 13.8-10 9-19.2-4.6-8.5-13-7.5-20.9-3.3l12 22.5z"/><path fill-rule="evenodd" clip-rule="evenodd" fill="#F6D2A2" stroke="#000" stroke-width="3" stroke-linecap="round" d="M392.5 298.5c-.8 15.7-16.5 8.5-23.7 3.5-6.7-4.6-8.7-.8-9.3-10-.4-6-1-12.1-.7-18.2 10.2-1 21.3 1.5 29.7 7.6 4.3 3.1 12.4 13.2 4 17"/><path fill-rule="evenodd" clip-rule="evenodd" fill="#C6B198" stroke="#000" stroke-width="3" stroke-linecap="round" d="M392.5 298.5c-2.3-.9-4.7-1.5-6.3-3.5"/><path fill-rule="evenodd" clip-rule="evenodd" fill="#6AD7E5" stroke="#000" stroke-width="3" stroke-linecap="round" d="M195.5 13.1c60.4 0 117 8.7 146.5 66.7 26.4 65 17 135 21 203.8 3.5 59 11.2 127.1-16.1 181.8-28.8 57.5-100.8 72-160 69.8-46.6-1.6-102.8-16.8-129.1-59.4-30.8-49.9-16.2-124-14-179.6 2.6-65.7-17.8-131.7 3.8-196 22.4-66.8 82.9-82 148-87"/><path fill-rule="evenodd" clip-rule="evenodd" fill="#FFF" stroke="#000" stroke-width="2.9" stroke-linecap="round" d="M206.2 94.2c10.8 63 113.8 46.3 99-17.2-13.3-57-102.6-41.2-99 17.2"/><path fill-rule="evenodd" clip-rule="evenodd" fill="#FFF" stroke="#000" stroke-width="2.8" stroke-linecap="round" d="M83.1 104.3c14 54.9 101.9 40.9 98.6-14.2-4-65.9-112-53.1-98.6 14.3"/><path fill-rule="evenodd" clip-rule="evenodd" fill="#FFF" stroke="#000" stroke-width="3" stroke-linecap="round" d="M218.6 169.8c0 8.2 1.9 17.3.3 26-2 4-6.2 4.4-9.7 6-5-.7-9-4-11-8.5-1.2-10 .5-19.6.8-29.5l19.6 6z"/><g fill-rule="evenodd" clip-rule="evenodd"><ellipse cx="107.3" cy="95.4" rx="14.8" ry="16.1"/><ellipse fill="#FFF" cx="114.1" cy="99" rx="3.5" ry="4.1"/></g><g fill-rule="evenodd" clip-rule="evenodd"><ellipse cx="231.6" cy="91.4" rx="14.6" ry="16.1"/><ellipse fill="#FFF" cx="238.2" cy="95" rx="3.4" ry="4.1"/></g><path fill-rule="evenodd" clip-rule="evenodd" fill="#FFF" stroke="#000" stroke-width="3" stroke-linecap="round" d="M176.2 168.9c-6.5 15.6 3.6 47 21.2 23.9-1.3-10 .4-19.6.8-29.5l-22 5.6z"/><g fill-rule="evenodd" clip-rule="evenodd"><path fill="#F6D2A2" stroke="#231F20" stroke-width="3" stroke-linecap="round" d="M178.4 138.7c-12 1-21.9 15.3-15.6 26.7 8.3 15 26.8-1.3 38.4.2 13.2.3 24.1 14 34.8 2.5 11.9-12.9-5.1-25.4-18.4-31l-39.2 1.6z"/><path d="M177 138c-1-20.8 38.9-23.5 43.6-6 4.6 17.5-41.7 21.5-43.7 6-1.6-12.3 0 0 0 0z"/></g></svg>