<svg xmlns="http://www.w3.org/2000/svg" xmlns:xlink="http://www.w3.org/1999/xlink" width="110.42" height="109.85" id="svg2169" version="1"><script/><defs id="defs2171"><linearGradient id="linearGradient11301"><stop id="stop11303" offset="0" stop-color="#ffe052"/><stop id="stop11305" offset="1" stop-color="#ffc331"/></linearGradient><linearGradient gradientUnits="userSpaceOnUse" y2="168.1" x2="147.78" y1="111.92" x1="89.14" id="linearGradient11307" xlink:href="#linearGradient11301"/><linearGradient id="linearGradient9515"><stop id="stop9517" offset="0" stop-color="#387eb8"/><stop id="stop9519" offset="1" stop-color="#366994"/></linearGradient><linearGradient gradientUnits="userSpaceOnUse" y2="131.85" x2="110.15" y1="77.07" x1="55.55" id="linearGradient9521" xlink:href="#linearGradient9515"/></defs><g id="layer1" transform="translate(-473.36 -251.72)"><g id="g1894" transform="translate(428.42 184.26)" color="#000"><path style="marker:none" d="M99.75 67.47c-28.03 0-26.28 12.16-26.28 12.16l.03 12.59h26.75V96H62.87s-17.93-2.03-17.93 26.25 15.65 27.28 15.65 27.28h9.35v-13.12s-.5-15.66 15.4-15.66h26.53s14.91.24 14.91-14.4V82.12s2.26-14.66-27.03-14.66zM85 75.94a4.8 4.8 0 1 1 0 9.61 4.8 4.8 0 0 1 0-9.61z" id="path8615" fill="url(#linearGradient9521)" overflow="visible"/><path id="path8620" d="M100.55 177.31c28.03 0 26.28-12.15 26.28-12.15l-.03-12.6h-26.75v-3.78h37.37s17.94 2.04 17.94-26.25c0-28.28-15.66-27.28-15.66-27.28h-9.34v13.13s.5 15.65-15.4 15.65H88.41s-14.9-.24-14.9 14.41v24.22s-2.27 14.65 27.03 14.65zm14.75-8.46a4.8 4.8 0 1 1-.01-9.62 4.8 4.8 0 0 1 0 9.62z" style="marker:none" fill="url(#linearGradient11307)" overflow="visible"/></g></g></svg>