<?xml version="1.0" standalone="no"?>
<!DOCTYPE svg PUBLIC "-//W3C//DTD SVG 20010904//EN"
 "http://www.w3.org/TR/2001/REC-SVG-20010904/DTD/svg10.dtd">
<svg version="1.0" xmlns="http://www.w3.org/2000/svg"
 width="660.000000pt" height="660.000000pt" viewBox="0 0 660.000000 660.000000"
 preserveAspectRatio="xMidYMid meet">
<metadata>
Created by potrace 1.11, written by Peter Selinger 2001-2013
</metadata>
<g transform="translate(0.000000,660.000000) scale(0.100000,-0.100000)"
fill="#000000" stroke="none">
<path d="M1127 6403 c-1 0 -42 -4 -92 -7 -95 -6 -125 -10 -190 -28 -22 -6 -44
-11 -50 -13 -5 -1 -23 -8 -40 -14 -16 -7 -37 -14 -45 -16 -8 -2 -44 -18 -80
-37 -244 -127 -430 -342 -516 -593 -15 -45 -19 -63 -29 -110 -2 -11 -8 -33
-12 -50 -4 -16 -9 -1054 -10 -2306 -3 -2454 -5 -2346 47 -2509 62 -190 181
-363 341 -495 68 -57 245 -152 314 -170 17 -5 35 -10 40 -11 128 -41 -6 -39
2480 -39 1287 0 2359 3 2381 7 23 4 61 12 85 18 24 7 49 13 54 15 12 2 28 9
117 45 152 62 324 204 427 351 76 108 148 266 165 365 3 16 10 52 15 79 13 63
14 4549 1 4620 -17 98 -20 111 -40 173 -102 310 -324 540 -637 661 -29 12 -53
18 -53 15 0 -4 -6 -2 -12 4 -14 11 -133 32 -213 38 -27 2 -225 4 -440 4 -214
0 -399 0 -410 0 -80 2 -104 2 -135 1 -32 -1 -796 -2 -830 -1 -50 2 -99 2 -130
1 -32 -1 -796 -2 -830 -1 -50 2 -99 2 -130 1 -32 -1 -796 -2 -830 -1 -50 2
-100 2 -130 1 -19 -1 -158 0 -308 1 -151 2 -274 2 -275 1z"/>
</g>
</svg>
