<svg xmlns="http://www.w3.org/2000/svg" width="128" height="128" viewBox="1.6 2.2 1087.4 855.8"><path fill="#F7A80D" d="m318.8 547.8-99.6 42.8 92.3 39.4 107-39.4-99.7-42.8zm-149.7 53.5-3.4 192.5L311.5 858V658.1L169 601.3zm299.5 0L337 651.4V840l131.7-53.5V601.3zM625.7 2.2 525.4 45l93 39.4 107-39.4-99.7-42.8zM486.7 59v192.6L611 287.7l4-175.2L486.7 59zm278.1 10.7L647.1 120v189l117.7-53.5V69.7zM154.7 273.2 55 316l92.2 39.5 107-39.5-99.6-42.8zM4.9 326.7 1.6 519.3l145.7 64.2v-200L5 326.7zm299.6 0-131.8 50.2v188.5l131.8-53.5V326.7zm171.1-60.6L376 309l92.3 39.5 107-39.5-99.7-42.8zM326 319.6l-3.4 192.6 145.8 64.1V376.4L326 319.6zm299.5 0-131.7 50.1v188.6l131.7-53.5V319.6zM939.2 2.2 839.6 45l92.3 39.4 107-39.4-99.7-42.8zM789.4 55.7l-3.3 192.5L932 312.4V112.5L789.4 55.7zm299.6 0-131.7 50.1v188.6l131.7-53.5V55.7z"/></svg>