<svg xmlns="http://www.w3.org/2000/svg" width="722.8" height="702"><path style="fill:#326ce5;fill-opacity:1;stroke:#fff;stroke-width:0;stroke-miterlimit:4;stroke-opacity:1;stroke-dasharray:none" d="M365.3 184.8a46.7 46.3 0 0 0-17.9 4.5L103.1 306.1a46.7 46.3 0 0 0-25.3 31.4L17.5 599.8a46.7 46.3 0 0 0 6.3 35.5 46.7 46.3 0 0 0 2.7 3.7l169.1 210.3a46.7 46.3 0 0 0 36.6 17.4h271.2a46.7 46.3 0 0 0 36.5-17.5L709 639a46.7 46.3 0 0 0 9.1-39.2l-60.4-262.2a46.7 46.3 0 0 0-25.3-31.5L388 189.3a46.7 46.3 0 0 0-22.7-4.5z" transform="translate(-6.3 -174.8)"/><path d="M367.7 274c-8 0-14.6 7.3-14.6 16.3v4.2c.2 5.1 1.3 9.1 2 13.9 1.2 10.2 2.3 18.6 1.6 26.5a16 16 0 0 1-4.7 7.6l-.4 6.2a188.1 188.1 0 0 0-122 58.7l-5.2-3.8c-2.7.3-5.3 1.1-8.7-.9-6.6-4.4-12.5-10.5-19.7-17.8-3.4-3.5-5.7-6.8-9.7-10.2l-3.2-2.6c-3-2.5-6.7-3.7-10.2-3.9a14 14 0 0 0-11.7 5.2c-5 6.3-3.4 16 3.6 21.6l.2.1 3 2.5c4.2 3 8 4.6 12.2 7 8.7 5.5 16 10 21.8 15.3 2.2 2.4 2.6 6.6 2.9 8.5l4.7 4.2a189.3 189.3 0 0 0-29.9 131.9l-6 1.8c-1.7 2-4 5.3-6.4 6.3a129 129 0 0 1-26.2 4.3c-4.8.4-9 .2-14 1.2l-4 .9h-.3c-8.6 2.1-14.1 10-12.3 17.9 1.7 7.8 10.2 12.5 18.8 10.7h.2l.3-.2 3.8-.8c5-1.3 8.6-3.3 13.1-5 9.7-3.5 17.7-6.4 25.5-7.5 3.3-.3 6.7 2 8.4 3l6.4-1.2a190.3 190.3 0 0 0 84.4 105.3l-2.7 6.4c1 2.5 2 5.8 1.3 8.3a143 143 0 0 1-13.2 23.8c-2.7 4-5.5 7-7.9 11.7-.6 1-1.3 2.8-1.9 4-3.7 8-1 17.2 6.3 20.7 7.2 3.5 16.2-.2 20.2-8.3l1.8-3.7c2-4.8 2.8-8.9 4.2-13.4 3.9-9.8 6-20 11.3-26.3 1.5-1.8 3.9-2.4 6.3-3l3.4-6a189 189 0 0 0 135 .3l3 5.6c2.6.8 5.3 1.2 7.5 4.5 4 6.8 6.7 14.9 10 24.6 1.5 4.6 2.2 8.7 4.3 13.4l1.8 3.8c3.9 8 13 11.7 20.2 8.2 7.2-3.4 10-12.7 6.2-20.7l-1.9-4c-2.4-4.6-5.1-7.6-7.8-11.6a136.6 136.6 0 0 1-13-23.3c-1.2-3.7.2-6.1 1.2-8.6-.6-.6-1.8-4.2-2.5-5.9 40.5-23.9 70.3-62 84.3-106l6.3 1c2.2-1.4 4.2-3.3 8.2-3 7.8 1.1 15.8 4 25.5 7.5 4.5 1.7 8 3.7 13 5 1.1.4 2.7.6 3.9.9h.3l.2.1c8.6 1.9 17-2.9 18.8-10.7 1.8-7.8-3.7-15.7-12.3-17.8l-4.3-1c-5-1-9.2-.7-14-1.1-10.2-1-18.7-2-26.2-4.3-3.1-1.2-5.3-4.9-6.3-6.4l-6-1.7a188.9 188.9 0 0 0-30.4-131.6l5.2-4.7c.2-2.6 0-5.3 2.7-8.2 5.8-5.4 13-10 21.8-15.3 4.1-2.5 8-4 12.1-7.1l3.2-2.6c7-5.6 8.7-15.3 3.6-21.6-5-6.3-14.8-6.9-21.8-1.3l-3.2 2.6c-4 3.4-6.4 6.7-9.7 10.2-7.2 7.3-13.2 13.5-19.7 17.9-2.8 1.6-7 1-8.9 1l-5.5 3.9a191.7 191.7 0 0 0-121.4-58.7l-.4-6.5c-1.9-1.8-4.2-3.4-4.8-7.3-.6-7.9.5-16.3 1.7-26.5.7-4.8 1.8-8.8 2-14v-4c0-9-6.6-16.3-14.7-16.3zm-18.3 113.5-4.3 76.7-.3.2a12.9 12.9 0 0 1-20.5 9.8l-.1.1-63-44.6a150.7 150.7 0 0 1 88.2-42.2zm36.7 0a152 152 0 0 1 87.6 42.2l-62.5 44.4-.2-.1a13 13 0 0 1-20.5-9.9zm-147.6 70.9 57.4 51.3v.4a12.9 12.9 0 0 1-5.1 22.1l-.1.3-73.6 21.2a150.6 150.6 0 0 1 21.4-95.3zm258.1 0a152.5 152.5 0 0 1 22 95l-74-21.2v-.4a12.9 12.9 0 0 1-5-22.1l-.1-.2 57.1-51.1zM356 513.7h23.5L394 532l-5.2 22.8-21.2 10.2-21.2-10.2-5.2-22.8zm75.4 62.6c1 0 2 0 3 .2v-.2l76.2 13a150.8 150.8 0 0 1-61 76.5l-29.5-71.4.1-.1a13 13 0 0 1 11.2-18zm-128 .3a12.9 12.9 0 0 1 11.7 18l.3.2-29.3 70.7a151.4 151.4 0 0 1-60.8-76l75.5-12.8.2.1a13 13 0 0 1 2.5-.2zm63.9 31a12.8 12.8 0 0 1 11.8 6.8h.3l37.2 67.2a154.3 154.3 0 0 1-97.4-.1l37.1-67.1a13 13 0 0 1 11-6.8z" style="font-size:medium;font-style:normal;font-variant:normal;font-weight:400;font-stretch:normal;text-indent:0;text-align:start;text-decoration:none;line-height:normal;letter-spacing:normal;word-spacing:normal;text-transform:none;direction:ltr;block-progression:tb;writing-mode:lr-tb;text-anchor:start;baseline-shift:baseline;color:#000;fill:#fff;fill-opacity:1;stroke:#fff;stroke-width:.25;stroke-miterlimit:4;stroke-opacity:1;stroke-dasharray:none;marker:none;visibility:visible;display:inline;overflow:visible;enable-background:accumulate;font-family:Sans;-inkscape-font-specification:Sans" transform="translate(-6.3 -174.8)"/></svg>