<svg width="2500" height="2383" viewBox="0 0 256 244" xmlns="http://www.w3.org/2000/svg" preserveAspectRatio="xMidYMid"><path d="M177.4 169.7a18.3 18.3 0 0 0-2-36.5h-.6a18.2 18.2 0 0 0-12.4 31c-11 21.8-28 37.8-53.4 51.1a88.1 88.1 0 0 1-53.1 10.1c-14.7-2-26-8.4-33.3-19.2a47.9 47.9 0 0 1-2.6-50.5 76.7 76.7 0 0 1 22.2-26c-1.3-4.3-3.3-11.4-4.2-16.7-47.3 34.3-42.4 80.5-28 102.3 10.7 16.3 32.5 26.4 56.6 26.4 6.5 0 13-.6 19.6-2.2a125 125 0 0 0 91.2-69.8zm57.3-40.4c-24.7-29-61.2-45-103-45h-5.1c-3-5.8-9.2-9.7-16-9.7h-.7a18.2 18.2 0 0 0 .7 36.5h.6c7.2-.3 13.4-4.9 16-11h5.9c24.7 0 48.2 7 69.4 21A87.3 87.3 0 0 1 237 163a45 45 0 0 1-.7 38.4 47.8 47.8 0 0 1-44.6 26.7 85 85 0 0 1-32-6.8c-3.5 3.3-10 8.5-14.6 11.7a101 101 0 0 0 42 10.1c31.3 0 54.5-17.2 63.3-34.5 9.4-18.9 8.7-51.5-15.7-79.2zm-165.5 46c.4 9.7 8.5 17.6 18.3 17.6h.6a18.2 18.2 0 0 0-.6-36.5h-.7c-.6 0-1.6 0-2.3.3a119.4 119.4 0 0 1-16.9-72.3 87.4 87.4 0 0 1 19.2-50.5c9.5-12 27.7-18 40-18.3 34.6-.6 49.3 42.4 50.3 59.7 4.2 1 11.4 3.2 16.2 4.8C189.4 27.4 157 0 125.6 0 96.3 0 69.2 21.2 58.5 52.5c-15 41.7-5.2 81.7 13 113.3a14.6 14.6 0 0 0-2.3 9.5z" fill="#764ABC"/></svg>