<svg xmlns="http://www.w3.org/2000/svg" width="396.5" height="396.5" style="enable-background:new 0 0 396.494 396.494" xml:space="preserve"><path d="M304.4 330.9h-43.2a2.8 2.8 0 0 1-2.8-2.8v-10.6c0-1.5-1.3-2.8-2.9-2.8h-60.4a2.8 2.8 0 0 0-2.9 2.8v10.6c0 1.5-1.3 2.8-2.8 2.8h-32.5a2.8 2.8 0 0 0-2.8 2.8V346c0 1.6 1.2 2.8 2.8 2.8h147.5c1.6 0 2.9-1.2 2.9-2.8v-12.2c0-1.5-1.3-2.8-2.9-2.8zM377 46.4H68.6a19.5 19.5 0 0 0-19.4 19.4v50.8c0 6.7-.5 7.7 4 7.7h7.7c3.8 0 3-1 3-7.8V65.8c0-2.5 2.2-4.7 4.7-4.7H377c2.6 0 4.8 2.2 4.8 4.7v190h-220s-7.7 0-7.7 10v23.8c0 10 8 10 8 10h215c10.7 0 19.4-8.7 19.4-19.5V65.8c0-10.7-8.7-19.4-19.5-19.4zM222.8 282.8a8.8 8.8 0 1 1 0-17.5 8.8 8.8 0 0 1 0 17.5z"/><path d="M124.1 141.6H12.6c-7 0-12.6 5.7-12.6 12.6v183.4c0 6.9 5.6 12.5 12.6 12.5H124c7 0 12.6-5.6 12.6-12.5V154.2c0-7-5.7-12.6-12.6-12.6zm-69.5 12.8H82a2.4 2.4 0 0 1 0 4.8H54.6a2.4 2.4 0 1 1 0-4.8zm13.6 186.9a6.5 6.5 0 1 1 0-13 6.5 6.5 0 0 1 0 13zm57.7-19.1a3 3 0 0 1-3 3H13.8a3 3 0 0 1-3-3V169.8a3 3 0 0 1 3-3h109.1a3 3 0 0 1 3 3v152.4z"/></svg>