<svg width="512" height="512" fill="none" xmlns="http://www.w3.org/2000/svg"><rect width="512" height="512" rx="50" fill="#3178c6"/><path d="M317 407v50c8.1 4.2 18 7.3 29 9.4a189.1 189.1 0 0 0 69-.3c11-2.3 20-6.1 28-11 8.1-5.3 15-12 19-21a75.6 75.6 0 0 0 3-56c-2.7-7-6.6-13-12-18-5.1-5.3-11-10-18-14s-15-8.2-24-12c-6.6-2.7-12-5.3-18-7.9a78 78 0 0 1-13-7.8 35.7 35.7 0 0 1-8.5-8.4 17.6 17.6 0 0 1-.3-19.3c1.8-2.8 4.3-5.1 7.5-7.1a39 39 0 0 1 12-4.6 92.3 92.3 0 0 1 43 2.2c4.7 1.3 9.3 3 14 5a66 66 0 0 1 12 6.8v-47c-7.6-2.9-16-5-25-6.5a188.8 188.8 0 0 0-65 1.7c-11 2.5-20 6.5-28 12a59.4 59.4 0 0 0-26 51c0 15 4.3 28 13 38 8.6 11 22 19 39 27 6.9 2.8 13 5.6 19 8.3s11 5.5 15 8.4c4.3 3 7.7 6.1 10 9.5a19.7 19.7 0 0 1 1.5 21c-1.5 2.8-3.9 5.2-7.1 7.2s-7.1 3.6-12 4.8a90.6 90.6 0 0 1-49-4 95 95 0 0 1-30-17zm-84-123h64v-41H118v41h64v183h51z" clip-rule="evenodd" fill="#fff" fill-rule="evenodd" style="fill:#fff"/></svg>